<svg width="52" height="51" viewBox="0 0 52 51" fill="none" xmlns="http://www.w3.org/2000/svg">
<path d="M24.9583 11.4766V13.1597L26.0731 16.2064H22.5515V13.636C22.5565 13.3239 22.6529 13.0202 22.8287 12.7618C23.0046 12.5034 23.2524 12.3016 23.5418 12.1811L24.9583 11.4766Z" fill="url(#paint0_linear)"/>
<path d="M27.378 11.4766V13.1597L26.2632 16.2064H29.7651V13.636C29.7579 13.3236 29.66 13.02 29.4831 12.7619C29.3062 12.5037 29.0579 12.302 28.7683 12.1811L27.378 11.4766Z" fill="url(#paint1_linear)"/>
<path d="M25.7776 12.1797H26.676L26.3547 12.7146L26.676 13.3148L26.2301 15.8591L25.7776 13.3148L26.0727 12.7407L25.7776 12.1797Z" fill="url(#paint2_linear)"/>
<path d="M24.427 9.36195C24.427 9.36195 24.5516 11.4039 26.1452 11.6127C26.1452 11.6127 27.6273 11.6127 27.9486 9.36195C27.9486 9.36195 27.5093 9.42067 27.5486 8.46166C27.5486 8.23985 27.483 8.20723 27.2273 8.10938C27.2273 8.10938 25.9681 8.94443 25.0894 8.10938C24.996 8.12277 24.9079 8.16065 24.8342 8.21913C24.7604 8.2776 24.7036 8.35456 24.6696 8.44209C24.6696 8.44209 24.8795 9.14014 24.427 9.36195Z" fill="url(#paint3_linear)"/>
<path d="M26.2369 19.996C30.4419 19.996 33.8507 16.605 33.8507 12.4218C33.8507 8.23874 30.4419 4.84766 26.2369 4.84766C22.0319 4.84766 18.623 8.23874 18.623 12.4218C18.623 16.605 22.0319 19.996 26.2369 19.996Z" stroke="#F31D42"/>
<path d="M24.6167 35.0402C24.6167 35.0402 24.7347 36.9386 26.2169 37.1343C26.2169 37.1343 27.594 37.1343 27.8891 35.0402C27.8891 35.0402 27.4825 35.0989 27.5153 34.2051C27.5153 33.9963 27.4563 33.9702 27.2202 33.8789C27.2202 33.8789 26.0529 34.6552 25.2528 33.8789C25.1664 33.8927 25.0851 33.9289 25.0172 33.9839C24.9492 34.0388 24.8971 34.1106 24.8659 34.1921C24.8659 34.1921 25.043 34.8249 24.6167 35.0402Z" fill="url(#paint4_linear)"/>
<path d="M29.2143 38.3024C29.2143 38.3024 28.6897 37.2129 27.7256 37.2977C27.462 37.6607 27.1633 37.9972 26.8337 38.3024H29.2143Z" fill="url(#paint5_linear)"/>
<path d="M25.5612 38.3328H23.1348C23.2588 38.0402 23.4655 37.7896 23.7296 37.6113C23.9938 37.433 24.3043 37.3347 24.6234 37.3281" fill="url(#paint6_linear)"/>
<path d="M26.1447 38.4297C26.1447 38.4297 25.9873 37.8491 25.7512 37.7773H26.6693C26.5056 37.9633 26.3927 38.1879 26.3414 38.4297H26.1447Z" fill="url(#paint7_linear)"/>
<path d="M22.4921 38.4336H30.447C30.447 38.4336 30.847 38.4336 30.6503 39.086L29.6207 42.9611H23.266L22.2364 38.9555C22.2364 38.9555 22.0068 38.4336 22.4921 38.4336Z" fill="url(#paint8_linear)"/>
<path d="M26.2366 45.9687C30.4416 45.9687 33.8505 42.5776 33.8505 38.3945C33.8505 34.2114 30.4416 30.8203 26.2366 30.8203C22.0316 30.8203 18.6228 34.2114 18.6228 38.3945C18.6228 42.5776 22.0316 45.9687 26.2366 45.9687Z" stroke="white"/>
<path d="M20.4646 0.537742C23.8986 -0.17028 27.4412 -0.179226 30.8788 0.511442C34.3164 1.20211 37.5779 2.57809 40.4665 4.55643C43.331 6.56656 45.7566 9.13291 47.5971 12.1008C49.4377 15.0686 50.655 18.3766 51.1757 21.8251C51.6581 25.2782 51.4321 28.7928 50.5112 32.1566C49.5903 35.5204 47.9937 38.6637 45.8178 41.3966C44.6111 42.8906 38.4204 50.53 28.767 50.4844C26.898 50.4844 19.212 50.1647 15.2444 44.4302C14.7198 43.6735 12.6212 40.6464 13.1655 36.8886C13.8935 31.8457 20.1564 28.1271 20.1564 28.1271C20.1564 28.1271 20.3728 27.7759 24.5727 25.8652C28.7726 23.9544 29.7672 23.5245 30.6164 23.0255C32.1968 22.0795 37.5219 18.8763 38.1646 14.1791C38.3993 12.4633 38.2515 10.7171 37.7318 9.06442C37.1118 7.31092 36.0586 5.74059 34.6692 4.49772C33.63 3.53283 32.4436 2.73793 31.1541 2.14261C28.6803 0.971524 25.9717 0.373737 23.2321 0.394217C21.8352 0.394217 20.4777 0.589933 20.4777 0.544266C21.1565 0.396423 21.8444 0.293987 22.5369 0.237645C23.1927 0.165882 24.019 0.061501 24.7142 0.0549772C26.1767 0.0455939 27.6342 0.227649 29.049 0.596457C31.8978 1.32973 34.4945 2.81515 36.5645 4.89568C39.0237 7.40083 40.0533 11.8827 39.3647 15.2816C38.8335 17.9238 37.1285 20.1223 35.1086 21.8381C32.8455 23.6675 30.3411 25.1799 27.6653 26.3331C24.5437 27.7553 21.2843 29.0013 18.5693 31.1346C17.9066 31.6527 17.2881 32.2244 16.72 32.8439C14.0246 35.8514 13.9197 39.9288 16.0642 43.2429C17.2368 44.9415 18.8014 46.3361 20.6269 47.3099C22.4524 48.2838 24.4858 48.8085 26.557 48.8403C30.1003 48.9537 33.6083 48.1105 36.7088 46.4004C38.603 45.3932 40.3651 44.1574 41.9552 42.721C43.6164 41.2102 45.0675 39.4858 46.2703 37.5932C47.2183 36.0755 47.9697 34.4446 48.5066 32.7395C49.6442 29.3412 50.0281 25.7381 49.6319 22.1782C49.2357 18.6182 48.0687 15.1859 46.2113 12.1176C42.7683 6.55926 36.9055 2.75585 30.5967 1.19013C27.2904 0.34202 23.8532 0.120704 20.4646 0.537742Z" fill="#E51B30"/>
<path d="M30.9577 50.2053C27.5245 50.9152 23.9824 50.9262 20.5449 50.2378C17.1073 49.5494 13.8454 48.1758 10.9558 46.1996C8.0884 44.1866 5.66103 41.6161 3.82036 38.6435C1.9797 35.671 0.763948 32.358 0.246587 28.9049C-0.23545 25.4518 -0.00920524 21.9373 0.911653 18.5735C1.83251 15.2098 3.4289 12.0665 5.60448 9.33337C7.67437 6.74303 10.2545 4.60076 13.1866 3.03803C16.1186 1.4753 19.3408 0.525072 22.6553 0.245646C26.7081 -0.0348797 30.9446 0.839316 34.1514 3.31838C37.3583 5.79744 39.3323 10.0118 38.5059 13.9653C37.7059 17.7426 34.6171 20.6588 31.2594 22.6094C27.9017 24.56 24.1702 25.7735 20.7666 27.7045C17.363 29.6356 14.2807 32.4996 13.4216 36.2703C12.9771 38.2385 13.1794 40.2966 13.9987 42.1418C15.7169 45.9909 19.3959 47.6023 21.2125 48.3786C25.9736 50.3879 30.8987 49.9639 30.8856 50.2444C30.8856 50.2444 30.8462 50.3162 29.8428 50.4467C28.7857 50.6116 27.7188 50.7075 26.6491 50.7337C25.1874 50.7297 23.7316 50.5479 22.3143 50.1922C19.4642 49.462 16.8668 47.9761 14.7988 45.893C12.3395 43.3879 11.3099 38.9125 11.992 35.507C12.5297 32.8975 14.2348 30.6664 16.2481 28.9832C18.5148 27.1571 21.0211 25.6471 23.698 24.4948C26.8196 23.0661 30.0724 21.82 32.7939 19.6867C33.4954 19.1522 34.1473 18.5561 34.7417 17.9057C37.437 14.9047 37.5485 10.8273 35.3975 7.50669C33.0956 3.99686 29.1083 2.08537 24.9047 1.90923C21.3609 1.7881 17.8504 2.62453 14.7463 4.32958C12.8414 5.33578 11.0683 6.57157 9.46714 8.00903C7.80688 9.5189 6.35775 11.2435 5.15853 13.1368C4.20734 14.6528 3.45577 16.2841 2.92225 17.9905C1.78656 21.3897 1.40483 24.9933 1.80333 28.5533C2.20184 32.1133 3.37111 35.5451 5.23067 38.6124C8.67362 44.1707 14.5365 47.9741 20.8453 49.5659C24.1455 50.4105 27.5765 50.6274 30.9577 50.2053Z" fill="white"/>
<defs>
<linearGradient id="paint0_linear" x1="22.2564" y1="12.7357" x2="26.3727" y2="15.7963" gradientUnits="userSpaceOnUse">
<stop stop-color="#E07504"/>
<stop offset="0.49" stop-color="#FBDF15"/>
<stop offset="1" stop-color="white"/>
</linearGradient>
<linearGradient id="paint1_linear" x1="25.9697" y1="12.7357" x2="30.0793" y2="15.7743" gradientUnits="userSpaceOnUse">
<stop stop-color="#E07504"/>
<stop offset="0.49" stop-color="#FBDF15"/>
<stop offset="1" stop-color="white"/>
</linearGradient>
<linearGradient id="paint2_linear" x1="25.7023" y1="13.1592" x2="27.2415" y2="13.5345" gradientUnits="userSpaceOnUse">
<stop stop-color="#E07504"/>
<stop offset="0.49" stop-color="#FBDF15"/>
<stop offset="1" stop-color="white"/>
</linearGradient>
<linearGradient id="paint3_linear" x1="24.1319" y1="9.04198" x2="27.3156" y2="12.238" gradientUnits="userSpaceOnUse">
<stop stop-color="#E07504"/>
<stop offset="0.49" stop-color="#FBDF15"/>
<stop offset="1" stop-color="white"/>
</linearGradient>
<linearGradient id="paint4_linear" x1="24.3425" y1="34.7455" x2="27.3009" y2="37.7153" gradientUnits="userSpaceOnUse">
<stop stop-color="#E07504"/>
<stop offset="0.49" stop-color="#FBDF15"/>
<stop offset="1" stop-color="white"/>
</linearGradient>
<linearGradient id="paint5_linear" x1="26.6343" y1="37.5617" x2="27.2942" y2="39.116" gradientUnits="userSpaceOnUse">
<stop stop-color="#E07504"/>
<stop offset="0.49" stop-color="#FBDF15"/>
<stop offset="1" stop-color="white"/>
</linearGradient>
<linearGradient id="paint6_linear" x1="22.9314" y1="37.5956" x2="23.5775" y2="39.1538" gradientUnits="userSpaceOnUse">
<stop stop-color="#E07504"/>
<stop offset="0.49" stop-color="#FBDF15"/>
<stop offset="1" stop-color="white"/>
</linearGradient>
<linearGradient id="paint7_linear" x1="25.6743" y1="37.951" x2="26.2344" y2="38.7382" gradientUnits="userSpaceOnUse">
<stop stop-color="#E07504"/>
<stop offset="0.49" stop-color="#FBDF15"/>
<stop offset="1" stop-color="white"/>
</linearGradient>
<linearGradient id="paint8_linear" x1="21.4679" y1="39.6389" x2="24.8799" y2="46.0528" gradientUnits="userSpaceOnUse">
<stop stop-color="#E07504"/>
<stop offset="0.49" stop-color="#FBDF15"/>
<stop offset="1" stop-color="white"/>
</linearGradient>
</defs>
</svg>
